<svg xmlns="http://www.w3.org/2000/svg" width="752pt" height="752pt" version="1.1" viewBox="0 0 752 752">
 <path d="m584.4 234.42v-150h-150v150h150zm120 120h-150v150h150zm-441.6 0h-150v150h150zm0 120h-150v-150h150zm120-240v-150h-150v150zm120 0h-150v150h150zm0 120h-150v150h150zm120 0h-150v-150h150z" fill="#f5900"/>
 <path d="m594.4 474.42h120v120h-120zm0 120h120v-120h-120zm-120 120h120v-120h-120zm-451.6-600h120v120h-120zm120 0h120v120h-120zm0 120h120v-120h-120zm451.6 0h120v-120h-120zM142.76 714.42h120v-120h-120zm120 0h120v-120h-120zm-240 0h120v-120h-120zm360 0h120v-120h-120zm120 0h120v-120h-120zm-240-480h120v120h-120zm120 0h120v120h-120zm0 120h120v-120h-120zm120 0h120v-120h-120zm-120 120h120v-120h-120zm120 0h120v-120h-120zm0 120h120v-120h-120zm-120-240h120v-120h-120zm120-240h120v120h-120zm-240-120h120v120h-120zm0 120h120v-120h-120zm120 0h120v-120h-120zm-240 120h120v-120h-120zm120 0h120v-120h-120z" fill="#44545a"/>
</svg>
