<svg xmlns="http://www.w3.org/2000/svg" width="752pt" height="752pt" version="1.1" viewBox="0 0 752 752">
 <path d="m384.4 594.42c-174.18 0-315.58-70.047-315.58-156.28s141.4-156.28 315.58-156.28 315.58 70.047 315.58 156.28-141.4 156.28-315.58 156.28zm0-252.56c-134.8 0-244.56 44.84-244.56 99.973 0 55.133 109.75 99.973 244.56 99.973s244.56-44.84 244.56-99.973c0-55.133-109.75-99.973-244.56-99.973z" fill="#2664ac"/>
 <path d="m699.98 438.14c0-86.234-141.4-156.28-315.58-156.28h2.1797c171.21 0 310.73 68.031 313.4 152.73v-262.56h-631.17v266.31c2.664-84.703 144.81-156.48 315.58-156.48s172.79 18.398 225.96 47.031c-69.813 24.027-119.35 57.41-138.73 96.781-37.781 16.281-63.508 36.961-63.508 26.008 0 38.109 68.645 103.22 174.88 103.22s174.88-65.111 174.58-103.22c0-10.953-25.727-30.75-63.508-26.008 19.38-39.371 68.917-72.754 138.73-96.781 55.152-28.633 162.17-47.031 228.14-47.031h2.1797zm-631.17-353.72h631.17v60.008h-631.17z" fill="#44545a"/>
</svg>
