<svg xmlns="http://www.w3.org/2000/svg" viewBox="0 0 64 64"><path d="M32 2C15.5 6.5 5.5 19.2 5.5 34.8v21.3h3V34.8c0-13.9 8.7-25.1 22.5-29.6v-3zM28 40h9v21h-9z" fill="#036897"/><path d="M6 10h5v39H6zm14-4h5v31h-5zm8 0h5v31h-5zm-8-5h5v26h-5zM45 25h5v26h-5zm8 5h5v21h-5zm-8-5h5v26h-5zm-8-3h5v21h-5zm-23 0h7v21h-7zm-8 0h5v21h-5zm23-3h5v21h-5zm31.5 40.6v-3C29 53.5 19 40.8 19 25.2V4h-3.1v21.2c0 15.6 10 28.3 23.5 32.7v3c15.1-4.6 25.1-17.3 25.1-32.7V4h-3v21.2c0 15.6-10 28.3-23.5 32.7z" fill="#036897"/></svg>
