<svg xmlns="http://www.w3.org/2000/svg" viewBox="0 0 64 64"><path d="M56 50.5H6C4.6 50.5 3.5 49.4 3.5 48V14c0-1.4.1-2.5 2.5-2.5h50V48c0 1.4-1.1 2.5-2.5 2.5zM9 47.5v-21h44v21H9zm1 2v7h42v-7H10zm0 10h23v2H10zm26 0h16v2H36zm16-18H36v-7h16v7zM10 12.5h5v-2h-5V15h44v10h5v-2h5V14c0-2.5-1.6-4-4-4H8C5.6 10 4 11.6 4 14v34c0 2.5 1.6 4 4 4h48c2.4 0 4-1.6 4-4V28h-5v21c0 2.5-1.6 3-4 3H7c-2.4 0-3-.5-3-3v-8.5h56v-2H11.5V28H5V48h48c1.4 0 2.5-1.1 2.5-2.5V31H45v17.5c0 1.4-1.1 2.5-2.5 2.5H20c-1.4 0-2.5-1.1-2.5-2.5V46h-3v2.5c0 2.5 1.6 4 4 4h22.5c2.4 0 4-1.6 4-4V31H5v-3zm43 13h-2v-3h2v3z" fill="#036897"/></svg>
