<svg xmlns="http://www.w3.org/2000/svg" viewBox="0 0 64 64"><path d="M43.1 21.8c-6.3-6.3-16.5-6.3-22.7 0C14.1 28.1 14.1 38 20.3 44.2c6.3 6.3 16.5 6.3 22.7 0l9.2 9.2c1.2 1.2 3.1 1.2 4.2 0l1.4-1.4c1.2-1.2 1.2-3.1 0-4.2L43.1 21.8zM22.8 41.7c-5-5-5-13.2 0-18.2l5.7 5.7-2.8 2.8zm-1.4-19.9c5-5 13.2-5 18.2 0l-2.8 2.8-5.7-5.7zm19.6 19.9c-5 5-13.2 5-18.2 0l2.8-2.8 5.7 5.7zm1.4-19.9c-5 5-13.2 5-18.2 0l9.9-9.9c5-5 13.2-5 18.2 0l-9.9 9.9z" fill="#036897"/><path d="M32 3C15.4 3 2 15.9 2 32.5S20 62 32 62s30-14.9 30-29.5S48.6 3 32 3zm21.2 38.1c-1.2-1.2-3.1-1.2-4.2 0l-3.7 3.7c-3.1-1.8-6.6-3-10.3-3.4l3.4-9.3 7.1 6.5c1.5 1.4 3.8 1.1 4.9-.5l1.8-2.3c.9-1.2.5-2.9-.8-3.7l-8.2-5.9c-.5-.4-1.1-.5-1.7-.5-.6 0-1.2.2-1.6.6l-7.8 10.5c-.6.8-.6 2 0 2.8s2.3 2.8 3.7 2.1L60 31.6c.6-.5 1-.8 1.4-1.3.4-1 .1-2.2-.8-2.8l-1.8 1.5c-1.4 1.1-3.5.8-4.9-.6l-3.8-3.5c-3.6 3.7-6 8.1-6.7 12.9l-8.2 4.2c-.8.4-1.3 1.1-1.5 2s0 1.8-.6 2.4c-1.3 1.3-3.4 1.3-4.7 0l-1.1-1.1c-1.3-1.3-1.3-3.4 0-4.7l8.2-4.2c.4-1.1.6-2.3.6-3.6L17 4.7c1.3-1.3 3.4-1.3 4.7 0l1.1 1.1c1.3 1.3 1.3 3.4 0 4.7l-8.2 4.2c-.4 1.1-.6 2.3-.6 3.6l12.4-6.4c1.1-3.6 2.8-7 5.2-9.9l3.8 3.5c.7.7 1.7 1 2 1h3.5c-1.2 2.9-2 6.2-2.1 9.7-.3 8.8 3.7 17 9.9 22.1l9.9 9.9C50.9 37.3 52 20.5 32 20.5S13.1 37.3 22.9 47c5.6 5.6 13.7 8.8 21.8 8.8s16.2-3.1 21.8-8.8c9.8-9.8 9.8-25.6 0-35.4z" fill="#036897"/></svg>
