<svg xmlns="http://www.w3.org/2000/svg" viewBox="0 0 64 64"><path d="M24.5 35c2-1.1 4.3-1.7 6.5-1.7s4.5.6 6.5 1.7l1.9-2.3c-2.6-1.8-5.7-2.9-8.5-2.9-2.7 0-5.8 1.1-8.4 2.9l1.8 2.1zm-4.9 4.9c2.8-2.6 6.4-4 10.4-4 4 0 7.6 1.4 10.4 4l1.8-2.1c-3.4-3.1-7.7-4.9-12.2-4.9-4.5 0-8.8 1.8-12.2 4.9l1.8 2.1zM14.7 44.8c3.7-3.4 8.4-5.3 13.3-5.3s9.6 1.9 13.3 5.3l1.8-2.1c-4.2-3.9-9.6-6.2-15.1-6.2-5.5-.1-11 3.3-15.1 6.2l1.8 2.1z" fill="#036897"/><path d="M32 2C9.9 2 2 9.9 2 32s7.9 30 30 30 30-7.9 30-30S54.1 2 32 2zm0 54.8C12.9 56.8 5.2 49 5.2 32s7.7-24.8 26.8-24.8 26.8 11.1 26.8 24.8-11.1 24.8-26.8 24.8z" fill="#036897"/></svg>
