<svg xmlns="http://www.w3.org/2000/svg" viewBox="0 0 64 64">
    <rect fill="#036897" x="8" y="16" width="48" height="32" rx="4"/>
    <path fill="#FFFFFF" d="M24.5 35c2-1.1 4.3-1.7 6.5-1.7s4.5.6 6.5 1.7l1.9-2.3c-2.6-1.8-5.7-2.9-8.5-2.9-2.7 0-5.8 1.1-8.4 2.9l1.8 2.1z" transform="scale(0.8) translate(8, 8)"/>
    <path fill="#FFFFFF" d="M19.6 39.9c2.8-2.6 6.4-4 10.4-4 4 0 7.6 1.4 10.4 4l1.8-2.1c-3.4-3.1-7.7-4.9-12.2-4.9-4.5 0-8.8 1.8-12.2 4.9l1.8 2.1z" transform="scale(0.8) translate(8, 8)"/>
    <circle fill="#FFFFFF" cx="20" cy="24" r="2"/>
    <circle fill="#FFFFFF" cx="44" cy="24" r="2"/>
</svg>