<svg xmlns="http://www.w3.org/2000/svg" viewBox="0 0 64 64"><path d="M32 32c7-.1 12.6-6.1 12.5-13.3C44.4 11.3 39.3 6 32 6c-7.3 0-12.5 5-12.3 12.7.1 7.2 5.7 13.2 12.7 13.3zm0-20.5c4.4 0 7.7 3.6 7.5 8 .1 4.4-3.4 8-7.8 8-4.4 0-8-3.6-8-8.1s0-3.6 8.3-8zm16 31.7c-.4-1.3-.8-2.7-1.3-3.9-5.3-11.8-19.1-14.3-30-9.9-2.1.9-4.2 2.1-6 3.5l-1.9 1.5c-2.3 1.8-2.6 5-.7 7.2 1.8 2.1 4.8 1.9 6.9-.5l1.8-1.4c4.7-3.7 10.2-5.7 16-5.7 4 0 7.9 1 11.5 2.9 4.9 2.5 7 7.4 4.8 11.9l-.1.2c-1.2 2.5.3 5.5 2.8 6.7 3.1 1.5 6.5-.2 7.6-3.3.7-1.9.6-3.9-.4-5.6z" fill="#036897"/></svg>
